<?xml version="1.0" encoding="utf-8"?><svg xmlns="http://www.w3.org/2000/svg" xmlns:xlink="http://www.w3.org/1999/xlink"><symbol viewBox="0 0 44 45" id="facebook" xmlns="http://www.w3.org/2000/svg"><path d="M44 22.459C44 10.298 34.15.44 22 .44S0 10.298 0 22.458c0 10.99 8.045 20.1 18.563 21.752V28.823h-5.586V22.46h5.586v-4.851c0-5.519 3.284-8.567 8.31-8.567 2.405 0 4.924.43 4.924.43v5.419h-2.774c-2.733 0-3.585 1.697-3.585 3.44v4.129h6.101l-.975 6.364h-5.126V44.21C35.954 42.558 44 33.448 44 22.459z"/><path fill="#fff" d="M30.567 28.822l.975-6.365h-6.101V18.33c0-1.741.852-3.44 3.585-3.44H31.8V9.47s-2.517-.43-4.924-.43c-5.026 0-8.31 3.048-8.31 8.567v4.85H12.98v6.365h5.586v15.386a22.2 22.2 0 006.875 0V28.822z"/></symbol><symbol viewBox="0 0 44 44" id="instagramm" xmlns="http://www.w3.org/2000/svg"><path fill="#cfdce3" d="M0 22C0 9.85 9.85 0 22 0s22 9.85 22 22-9.85 22-22 22S0 34.15 0 22z"/><path fill="#fff" d="M22.006 11.268c-3.64 0-4.071.014-5.51.08-1.329.06-2.05.283-2.531.47a4.221 4.221 0 00-1.57 1.02 4.243 4.243 0 00-1.02 1.571c-.186.481-.408 1.204-.469 2.534-.065 1.439-.08 1.87-.08 5.513 0 3.644.015 4.075.08 5.514.06 1.33.283 2.053.47 2.534.218.593.566 1.13 1.02 1.57.44.454.976.803 1.569 1.021.48.187 1.202.41 2.532.47 1.437.065 1.868.08 5.509.08 3.64 0 4.072-.015 5.51-.08 1.329-.06 2.05-.283 2.531-.47a4.518 4.518 0 002.588-2.59c.186-.48.408-1.203.469-2.533.065-1.439.08-1.87.08-5.514 0-3.643-.015-4.074-.08-5.513-.06-1.33-.283-2.053-.47-2.534a4.225 4.225 0 00-1.02-1.57 4.222 4.222 0 00-1.57-1.021c-.48-.187-1.202-.41-2.53-.47-1.439-.065-1.87-.08-5.51-.08zm-.002-2.456c3.703 0 4.17.016 5.62.082 1.451.067 2.444.297 3.31.634.91.343 1.734.88 2.415 1.575a6.69 6.69 0 011.573 2.417c.337.866.567 1.854.633 3.31.067 1.455.083 1.92.083 5.625 0 3.706-.017 4.174-.083 5.626s-.296 2.445-.633 3.312a6.972 6.972 0 01-3.988 3.991c-.866.337-1.854.568-3.308.634-1.454.067-1.918.082-5.621.082-3.703 0-4.17-.016-5.622-.082-1.45-.066-2.443-.297-3.309-.634a6.685 6.685 0 01-2.416-1.575 6.7 6.7 0 01-1.573-2.416c-.336-.867-.566-1.856-.633-3.311-.066-1.455-.082-1.92-.082-5.626 0-3.705.016-4.172.082-5.624s.297-2.446.633-3.312a6.7 6.7 0 011.573-2.418 6.693 6.693 0 012.416-1.574c.866-.337 1.856-.57 3.31-.636 1.455-.066 1.92-.082 5.622-.082zm2.681 7.17a7.002 7.002 0 014.322 6.474 7.01 7.01 0 01-4.322 6.473 6.997 6.997 0 01-9.546-5.106 7.011 7.011 0 012.977-7.193 6.997 6.997 0 016.569-.647zm.535 9.69a4.55 4.55 0 00-4.101-7.678 4.545 4.545 0 00-3.572 3.574 4.553 4.553 0 001.933 4.67 4.543 4.543 0 005.74-.565zm5.7-10.499a1.637 1.637 0 11-3.274.002 1.637 1.637 0 013.273-.002z"/></symbol><symbol viewBox="0 0 97 30" id="logo" xmlns="http://www.w3.org/2000/svg"><path fill="#06a9b3" d="M55.39 29.992c-1.19 0-2.262-.245-3.215-.736a5.638 5.638 0 01-2.206-2.08c-.533-.883-.799-1.884-.799-3.005 0-1.12.266-2.122.799-3.005a5.49 5.49 0 012.206-2.06c.953-.504 2.024-.756 3.215-.756 1.191 0 2.256.252 3.194.757a5.49 5.49 0 012.207 2.059c.532.883.798 1.884.798 3.005 0 1.12-.266 2.122-.798 3.005a5.639 5.639 0 01-2.207 2.08c-.938.49-2.003.736-3.194.736zm0-2.69c.84 0 1.527-.28 2.06-.84.546-.575.82-1.338.82-2.291 0-.953-.274-1.71-.82-2.27-.533-.574-1.22-.861-2.06-.861-.84 0-1.534.287-2.08.861-.547.56-.82 1.317-.82 2.27 0 .953.273 1.716.82 2.29.546.56 1.24.841 2.08.841zm22.87-8.952c1.415 0 2.535.42 3.362 1.26.84.827 1.26 2.074 1.26 3.741v6.473h-3.277v-5.968c0-.897-.19-1.562-.568-1.997-.364-.448-.89-.672-1.576-.672-.77 0-1.38.252-1.828.756-.448.49-.673 1.226-.673 2.207v5.674h-3.278v-5.968c0-1.78-.714-2.67-2.143-2.67-.757 0-1.36.253-1.808.757-.448.49-.672 1.226-.672 2.207v5.674h-3.278V18.518h3.13v1.303c.421-.476.933-.84 1.535-1.093a5.278 5.278 0 012.017-.378c.799 0 1.52.161 2.165.483a3.759 3.759 0 011.555 1.366 4.656 4.656 0 011.744-1.366 5.607 5.607 0 012.333-.483zm13.38 9.015c.588 0 1.106-.084 1.554-.252.463-.182.89-.462 1.282-.84l1.744 1.89c-1.064 1.22-2.62 1.829-4.665 1.829-1.275 0-2.402-.245-3.383-.736-.98-.504-1.737-1.197-2.27-2.08-.532-.883-.798-1.884-.798-3.005 0-1.107.259-2.101.777-2.984a5.517 5.517 0 012.165-2.08c.924-.505 1.961-.757 3.11-.757 1.079 0 2.06.231 2.942.693a5.094 5.094 0 012.101 1.976c.533.854.799 1.87.799 3.047l-8.364 1.618c.238.56.61.98 1.114 1.26.518.281 1.149.421 1.891.421zm-.484-6.535c-.827 0-1.5.266-2.018.798-.518.533-.791 1.268-.819 2.207l5.506-1.072a2.47 2.47 0 00-.946-1.408c-.476-.35-1.05-.525-1.723-.525z"/><path fill="#ffb257" d="M46.764 10.108v19.716h-3.405v-6.03h-6.584v6.03h-3.502V10.246l-19.796 3.959-.687-3.434 21.843-4.369a1.751 1.751 0 012.142 1.72v12.792h6.584V0h3.405v6.55l38.475 6.84-.613 3.449z"/><path fill="#06a9b3" d="M6.746 14.87c1.359 0 2.542.266 3.551.799 1.009.532 1.793 1.316 2.354 2.353.56 1.037.84 2.29.84 3.762v8.048h-3.404v-3.53H3.362v3.53H0v-8.048c0-1.471.28-2.725.84-3.762.561-1.037 1.346-1.821 2.354-2.353 1.009-.533 2.193-.799 3.552-.799zm3.34 8.7v-2.101c0-1.22-.3-2.137-.903-2.753-.602-.63-1.422-.946-2.458-.946-1.051 0-1.878.315-2.48.946-.589.616-.883 1.534-.883 2.753v2.1zM20.677 30c-1.275 0-2.27-.336-2.984-1.008-.715-.687-1.072-1.654-1.072-2.9V15h3.278v10.902c0 .476.12.847.358 1.113.252.253.602.379 1.05.379.169 0 .337-.021.505-.063.182-.042.322-.091.42-.148l.147 2.543a5.348 5.348 0 01-1.702.273zm10.12-.714c-.322.238-.721.42-1.198.546a6.133 6.133 0 01-1.45.168c-1.359 0-2.402-.343-3.13-1.03-.73-.686-1.094-1.694-1.094-3.025v-9.92h3.279v2.754h2.795V21.3h-2.795v4.603c0 .476.119.847.357 1.113.238.253.581.379 1.03.379.504 0 .952-.14 1.345-.42z"/></symbol><symbol viewBox="0 0 97 30" id="logo-bottom" xmlns="http://www.w3.org/2000/svg"><path fill="#06a9b3" d="M55.39 29.992c-1.19 0-2.262-.245-3.215-.736a5.638 5.638 0 01-2.206-2.08c-.533-.883-.799-1.884-.799-3.005 0-1.12.266-2.122.799-3.005a5.49 5.49 0 012.206-2.06c.953-.504 2.024-.756 3.215-.756 1.191 0 2.256.252 3.194.757a5.49 5.49 0 012.207 2.059c.532.883.798 1.884.798 3.005 0 1.12-.266 2.122-.798 3.005a5.639 5.639 0 01-2.207 2.08c-.938.49-2.003.736-3.194.736zm0-2.69c.84 0 1.527-.28 2.06-.84.546-.575.82-1.338.82-2.291 0-.953-.274-1.71-.82-2.27-.533-.574-1.22-.861-2.06-.861-.84 0-1.534.287-2.08.861-.547.56-.82 1.317-.82 2.27 0 .953.273 1.716.82 2.29.546.56 1.24.841 2.08.841zm22.87-8.952c1.415 0 2.535.42 3.362 1.26.84.827 1.26 2.074 1.26 3.741v6.473h-3.277v-5.968c0-.897-.19-1.562-.568-1.997-.364-.448-.89-.672-1.576-.672-.77 0-1.38.252-1.828.756-.448.49-.673 1.226-.673 2.207v5.674h-3.278v-5.968c0-1.78-.714-2.67-2.143-2.67-.757 0-1.36.253-1.808.757-.448.49-.672 1.226-.672 2.207v5.674h-3.278V18.518h3.13v1.303c.421-.476.933-.84 1.535-1.093a5.278 5.278 0 012.017-.378c.799 0 1.52.161 2.165.483a3.759 3.759 0 011.555 1.366 4.656 4.656 0 011.744-1.366 5.607 5.607 0 012.333-.483zm13.38 9.015c.588 0 1.106-.084 1.554-.252.463-.182.89-.462 1.282-.84l1.744 1.89c-1.064 1.22-2.62 1.829-4.665 1.829-1.275 0-2.402-.245-3.383-.736-.98-.504-1.737-1.197-2.27-2.08-.532-.883-.798-1.884-.798-3.005 0-1.107.259-2.101.777-2.984a5.517 5.517 0 012.165-2.08c.924-.505 1.961-.757 3.11-.757 1.079 0 2.06.231 2.942.693a5.094 5.094 0 012.101 1.976c.533.854.799 1.87.799 3.047l-8.364 1.618c.238.56.61.98 1.114 1.26.518.281 1.149.421 1.891.421zm-.484-6.535c-.827 0-1.5.266-2.018.798-.518.533-.791 1.268-.819 2.207l5.506-1.072a2.47 2.47 0 00-.946-1.408c-.476-.35-1.05-.525-1.723-.525z"/><path fill="#06a9b3" d="M46.764 10.108v19.716h-3.405v-6.03h-6.584v6.03h-3.502V10.246l-19.796 3.959-.687-3.434 21.843-4.369a1.751 1.751 0 012.142 1.72v12.792h6.584V0h3.405v6.55l38.475 6.84-.613 3.449z"/><path fill="#06a9b3" d="M6.746 14.87c1.359 0 2.542.266 3.551.799 1.009.532 1.793 1.316 2.354 2.353.56 1.037.84 2.29.84 3.762v8.048h-3.404v-3.53H3.362v3.53H0v-8.048c0-1.471.28-2.725.84-3.762.561-1.037 1.346-1.821 2.354-2.353 1.009-.533 2.193-.799 3.552-.799zm3.34 8.7v-2.101c0-1.22-.3-2.137-.903-2.753-.602-.63-1.422-.946-2.458-.946-1.051 0-1.878.315-2.48.946-.589.616-.883 1.534-.883 2.753v2.1zM20.677 30c-1.275 0-2.27-.336-2.984-1.008-.715-.687-1.072-1.654-1.072-2.9V15h3.278v10.902c0 .476.12.847.358 1.113.252.253.602.379 1.05.379.169 0 .337-.021.505-.063.182-.042.322-.091.42-.148l.147 2.543a5.348 5.348 0 01-1.702.273zm10.12-.714c-.322.238-.721.42-1.198.546a6.133 6.133 0 01-1.45.168c-1.359 0-2.402-.343-3.13-1.03-.73-.686-1.094-1.694-1.094-3.025v-9.92h3.279v2.754h2.795V21.3h-2.795v4.603c0 .476.119.847.357 1.113.238.253.581.379 1.03.379.504 0 .952-.14 1.345-.42z"/></symbol><symbol viewBox="0 0 16 16" id="search" xmlns="http://www.w3.org/2000/svg"><path fill="#06a9b3" d="M11 6.5a4.5 4.5 0 11-9 0 4.5 4.5 0 019 0zm3.586 9.5l1.415-1.415-4.252-4.25a6.5 6.5 0 10-1.414 1.414z"/></symbol><symbol viewBox="0 0 44 44" id="vk" xmlns="http://www.w3.org/2000/svg"><path fill="#cfdce3" d="M0 22C0 9.85 9.85 0 22 0s22 9.85 22 22-9.85 22-22 22S0 34.15 0 22z"/><path fill="#fff" d="M35.909 15.57c.217-.683 0-1.179-.96-1.179h-3.192c-.806 0-1.178.434-1.395.9 0 0-1.642 3.969-3.935 6.543-.743.744-1.084.992-1.487.992-.217 0-.496-.248-.496-.93v-6.358c0-.806-.248-1.178-.93-1.178h-5.02c-.495 0-.805.372-.805.744 0 .776 1.147.962 1.27 3.132v4.714c0 1.024-.185 1.21-.588 1.21-1.085 0-3.718-4-5.299-8.56-.31-.899-.62-1.24-1.425-1.24H8.425c-.93 0-1.085.434-1.085.9 0 .837 1.085 5.054 5.05 10.636 2.635 3.815 6.384 5.862 9.761 5.862 2.045 0 2.293-.466 2.293-1.24v-2.885c0-.93.186-1.085.837-1.085.465 0 1.301.248 3.191 2.077 2.17 2.171 2.541 3.164 3.75 3.164h3.191c.93 0 1.364-.466 1.116-1.365-.28-.9-1.333-2.202-2.696-3.752-.744-.869-1.86-1.83-2.2-2.295-.465-.62-.34-.868 0-1.427-.031 0 3.873-5.52 4.276-7.38z"/></symbol></svg>