<svg xmlns="http://www.w3.org/2000/svg" width="44" height="44" viewBox="0 0 44 44">
	<g>
		<g>
			<g>
				<path fill="#cfdce3" d="M0 22C0 9.85 9.85 0 22 0s22 9.85 22 22-9.85 22-22 22S0 34.15 0 22z" />
			</g>
			<g>
				<path fill="#fff" d="M22.006 11.268c-3.64 0-4.071.014-5.51.08-1.329.06-2.05.283-2.531.47a4.221 4.221 0 0 0-1.57 1.02c-.453.441-.801.978-1.02 1.571-.186.481-.408 1.204-.469 2.534-.065 1.439-.08 1.87-.08 5.513 0 3.644.015 4.075.08 5.514.06 1.33.283 2.053.47 2.534.218.593.566 1.13 1.02 1.57.44.454.976.803 1.569 1.021.48.187 1.202.41 2.532.47 1.437.065 1.868.08 5.509.08 3.64 0 4.072-.015 5.51-.08 1.329-.06 2.05-.283 2.531-.47a4.518 4.518 0 0 0 2.588-2.59c.186-.48.408-1.203.469-2.533.065-1.439.08-1.87.08-5.514 0-3.643-.015-4.074-.08-5.513-.06-1.33-.283-2.053-.47-2.534a4.225 4.225 0 0 0-1.02-1.57 4.222 4.222 0 0 0-1.57-1.021c-.48-.187-1.202-.41-2.53-.47-1.439-.065-1.87-.08-5.51-.08zm-.002-2.456c3.703 0 4.17.016 5.62.082 1.451.067 2.444.297 3.31.634.91.343 1.734.88 2.415 1.575a6.69 6.69 0 0 1 1.573 2.417c.337.866.567 1.854.633 3.31.067 1.455.083 1.92.083 5.625 0 3.706-.017 4.174-.083 5.626s-.296 2.445-.633 3.312a6.972 6.972 0 0 1-3.988 3.991c-.866.337-1.854.568-3.308.634-1.454.067-1.918.082-5.621.082-3.703 0-4.17-.016-5.622-.082-1.45-.066-2.443-.297-3.309-.634a6.685 6.685 0 0 1-2.416-1.575 6.7 6.7 0 0 1-1.573-2.416c-.336-.867-.566-1.856-.633-3.311-.066-1.455-.082-1.92-.082-5.626 0-3.705.016-4.172.082-5.624s.297-2.446.633-3.312a6.7 6.7 0 0 1 1.573-2.418 6.693 6.693 0 0 1 2.416-1.574c.866-.337 1.856-.57 3.31-.636 1.455-.066 1.92-.082 5.622-.082zm2.681 7.17a7.002 7.002 0 0 1 4.322 6.474 7.01 7.01 0 0 1-4.322 6.473 6.997 6.997 0 0 1-9.546-5.106 7.011 7.011 0 0 1 2.977-7.193 6.997 6.997 0 0 1 6.569-.647zm.535 9.69a4.55 4.55 0 0 0-4.101-7.678 4.545 4.545 0 0 0-3.572 3.574 4.553 4.553 0 0 0 1.933 4.67 4.543 4.543 0 0 0 5.74-.565zm5.7-10.499a1.637 1.637 0 1 1-3.274.002 1.637 1.637 0 0 1 3.273-.002z" />
			</g>
		</g>
	</g>
</svg>
