<svg xmlns="http://www.w3.org/2000/svg" width="97" height="30" viewBox="0 0 97 30"><g><g><g><path fill="#06a9b3" d="M55.39 29.992c-1.19 0-2.262-.245-3.215-.736a5.638 5.638 0 0 1-2.206-2.08c-.533-.883-.799-1.884-.799-3.005 0-1.12.266-2.122.799-3.005a5.49 5.49 0 0 1 2.206-2.06c.953-.504 2.024-.756 3.215-.756 1.191 0 2.256.252 3.194.757a5.49 5.49 0 0 1 2.207 2.059c.532.883.798 1.884.798 3.005 0 1.12-.266 2.122-.798 3.005a5.639 5.639 0 0 1-2.207 2.08c-.938.49-2.003.736-3.194.736zm0-2.69c.84 0 1.527-.28 2.06-.84.546-.575.82-1.338.82-2.291 0-.953-.274-1.71-.82-2.27-.533-.574-1.22-.861-2.06-.861-.84 0-1.534.287-2.08.861-.547.56-.82 1.317-.82 2.27 0 .953.273 1.716.82 2.29.546.56 1.24.841 2.08.841zm22.87-8.952c1.415 0 2.535.42 3.362 1.26.84.827 1.26 2.074 1.26 3.741v6.473h-3.277v-5.968c0-.897-.19-1.562-.568-1.997-.364-.448-.89-.672-1.576-.672-.77 0-1.38.252-1.828.756-.448.49-.673 1.226-.673 2.207v5.674h-3.278v-5.968c0-1.78-.714-2.67-2.143-2.67-.757 0-1.36.253-1.808.757-.448.49-.672 1.226-.672 2.207v5.674h-3.278V18.518h3.13v1.303c.421-.476.933-.84 1.535-1.093a5.278 5.278 0 0 1 2.017-.378c.799 0 1.52.161 2.165.483a3.759 3.759 0 0 1 1.555 1.366 4.656 4.656 0 0 1 1.744-1.366 5.607 5.607 0 0 1 2.333-.483zm13.38 9.015c.588 0 1.106-.084 1.554-.252.463-.182.89-.462 1.282-.84l1.744 1.89c-1.064 1.22-2.62 1.829-4.665 1.829-1.275 0-2.402-.245-3.383-.736-.98-.504-1.737-1.197-2.27-2.08-.532-.883-.798-1.884-.798-3.005 0-1.107.259-2.101.777-2.984a5.517 5.517 0 0 1 2.165-2.08c.924-.505 1.961-.757 3.11-.757 1.079 0 2.06.231 2.942.693a5.094 5.094 0 0 1 2.101 1.976c.533.854.799 1.87.799 3.047l-8.364 1.618c.238.56.61.98 1.114 1.26.518.281 1.149.421 1.891.421zm-.484-6.535c-.827 0-1.5.266-2.018.798-.518.533-.791 1.268-.819 2.207l5.506-1.072a2.47 2.47 0 0 0-.946-1.408c-.476-.35-1.05-.525-1.723-.525z"/></g><g><path fill="#06a9b3" d="M46.764 10.108v19.716h-3.405v-6.03h-6.584v6.03h-3.502V10.246l-19.796 3.959-.687-3.434 21.843-4.369a1.751 1.751 0 0 1 2.142 1.72v12.792h6.584V0h3.405v6.55l38.475 6.84-.613 3.449z"/></g><g><path fill="#06a9b3" d="M6.746 14.87c1.359 0 2.542.266 3.551.799 1.009.532 1.793 1.316 2.354 2.353.56 1.037.84 2.29.84 3.762v8.048h-3.404v-3.53H3.362v3.53H0v-8.048c0-1.471.28-2.725.84-3.762.561-1.037 1.346-1.821 2.354-2.353 1.009-.533 2.193-.799 3.552-.799zm3.34 8.7v-2.101c0-1.22-.3-2.137-.903-2.753-.602-.63-1.422-.946-2.458-.946-1.051 0-1.878.315-2.48.946-.589.616-.883 1.534-.883 2.753v2.1zM20.677 30c-1.275 0-2.27-.336-2.984-1.008-.715-.687-1.072-1.654-1.072-2.9V15h3.278v10.902c0 .476.12.847.358 1.113.252.253.602.379 1.05.379.169 0 .337-.021.505-.063.182-.042.322-.091.42-.148l.147 2.543a5.348 5.348 0 0 1-1.702.273zm10.12-.714c-.322.238-.721.42-1.198.546a6.133 6.133 0 0 1-1.45.168c-1.359 0-2.402-.343-3.13-1.03-.73-.686-1.094-1.694-1.094-3.025v-9.92h3.279v2.754h2.795V21.3h-2.795v4.603c0 .476.119.847.357 1.113.238.253.581.379 1.03.379.504 0 .952-.14 1.345-.42z"/></g></g></g></svg>