<svg xmlns="http://www.w3.org/2000/svg" width="44" height="45" viewBox="0 0 44 45">
	<g>
		<g>
			<g>
				<path d="M44 22.459C44 10.298 34.15.44 22 .44S0 10.298 0 22.458c0 10.99 8.045 20.1 18.563 21.752V28.823h-5.586V22.46h5.586v-4.851c0-5.519 3.284-8.567 8.31-8.567 2.405 0 4.924.43 4.924.43v5.419h-2.774c-2.733 0-3.585 1.697-3.585 3.44v4.129h6.101l-.975 6.364h-5.126V44.21C35.954 42.558 44 33.448 44 22.459z" />
			</g>
			<g>
				<path fill="#fff" d="M30.567 28.822l.975-6.365h-6.101V18.33c0-1.741.852-3.44 3.585-3.44H31.8V9.47s-2.517-.43-4.924-.43c-5.026 0-8.31 3.048-8.31 8.567v4.85H12.98v6.365h5.586v15.386c2.278.357 4.597.357 6.875 0V28.822z" />
			</g>
		</g>
	</g>
</svg>
