<svg xmlns="http://www.w3.org/2000/svg" width="44" height="44" viewBox="0 0 44 44"><g><g><g><path fill="#cfdce3" d="M0 22C0 9.85 9.85 0 22 0s22 9.85 22 22-9.85 22-22 22S0 34.15 0 22z"/></g><g><path fill="#fff" d="M35.909 15.57c.217-.683 0-1.179-.96-1.179h-3.192c-.806 0-1.178.434-1.395.9 0 0-1.642 3.969-3.935 6.543-.743.744-1.084.992-1.487.992-.217 0-.496-.248-.496-.93v-6.358c0-.806-.248-1.178-.93-1.178h-5.02c-.495 0-.805.372-.805.744 0 .776 1.147.962 1.27 3.132v4.714c0 1.024-.185 1.21-.588 1.21-1.085 0-3.718-4-5.299-8.56-.31-.899-.62-1.24-1.425-1.24H8.425c-.93 0-1.085.434-1.085.9 0 .837 1.085 5.054 5.05 10.636 2.635 3.815 6.384 5.862 9.761 5.862 2.045 0 2.293-.466 2.293-1.24v-2.885c0-.93.186-1.085.837-1.085.465 0 1.301.248 3.191 2.077 2.17 2.171 2.541 3.164 3.75 3.164h3.191c.93 0 1.364-.466 1.116-1.365-.28-.9-1.333-2.202-2.696-3.752-.744-.869-1.86-1.83-2.2-2.295-.465-.62-.34-.868 0-1.427-.031 0 3.873-5.52 4.276-7.38z"/></g></g></g></svg>